<svg height="496pt" viewBox="-12 0 496 496" width="496pt" xmlns="http://www.w3.org/2000/svg" xmlns:xlink="http://www.w3.org/1999/xlink"><linearGradient id="a" gradientUnits="userSpaceOnUse" x1="236" x2="236" y1="496" y2="0"><stop offset="0" stop-color="#9f2fff"/><stop offset="1" stop-color="#0bb1d3"/></linearGradient><path d="m232 280c0-13.230469-10.769531-24-24-24h-72v-40c0-6.03125-2.3125-11.488281-6-15.710938 13.214844-8.554687 22-23.402343 22-40.289062v-24c0-26.472656-21.527344-48-48-48s-48 21.527344-48 48v24c0 16.054688 7.953125 30.265625 20.097656 38.984375-3.328125 8.105469-6.019531 16.472656-7.984375 25.015625h-44.113281c-13.230469 0-24 10.769531-24 24s10.769531 24 24 24h8v72c0 15.6875 9.160156 29.152344 22.335938 35.703125l-29.230469 87.671875c-.730469 2.226562-1.105469 4.527344-1.105469 6.855469 0 12 9.769531 21.769531 22.296875 21.769531 9.167969 0 17.40625-5.808594 20.496094-14.449219l11.984375-33.550781h81.222656v48h168v-160h16v-48h-113.472656c.898437-2.511719 1.472656-5.183594 1.472656-8zm-24-8c4.414062 0 8 3.585938 8 8s-3.585938 8-8 8h-96c-4.414062 0-8-3.585938-8-8v-64c0-4.414062 3.585938-8 8-8s8 3.585938 8 8v56zm-136-112v-24c0-17.648438 14.351562-32 32-32s32 14.351562 32 32v24c0 17.648438-14.351562 32-32 32s-32-14.351562-32-32zm-20.265625 316.167969c-.824219 2.296875-3.007813 3.832031-5.964844 3.832031-3.183593 0-5.769531-2.585938-5.769531-5.769531 0-.605469.105469-1.246094.289062-1.824219l29.542969-88.628906c.734375.046875 1.425781.222656 2.167969.222656h12.648438zm108.265625-44.167969h-75.503906l5.710937-16h69.792969zm0-32h-64.078125l5.710937-16h58.367188zm0-32h-88c-13.230469 0-24-10.769531-24-24v-88h-24c-4.414062 0-8-3.585938-8-8s3.585938-8 8-8h41.28125c-.832031 6.558594-1.28125 13.167969-1.28125 19.777344v76.222656c0 8.824219 7.175781 16 16 16h80zm0-32h-80v-76.222656c0-16.488282 2.910156-33 8.480469-48.546875-.3125 1.546875-.480469 3.136719-.480469 4.769531v64c0 13.230469 10.769531 24 24 24h48zm152 144h-136v-144h136zm16-176v16h-152v-16zm117.871094-194.488281c11.023437-8.800781 18.128906-22.335938 18.128906-37.511719v-24c0-26.472656-21.527344-48-48-48s-48 21.527344-48 48v24c0 18.359375 10.375 34.335938 25.558594 42.398438-4.847656 3.808593-9.023438 8.53125-12.167969 14.035156-9.878906 17.285156-16.207031 35.992187-19.246094 55.558594h-42.144531c-13.230469 0-24 10.769531-24 24 0 13.230468 10.769531 24 24 24h40v48h16v216h96v-343.496094c0-18.671875-10.625-34.878906-26.128906-42.984375zm-61.871094-37.511719v-24c0-17.648438 14.351562-32 32-32s32 14.351562 32 32v24c0 17.648438-14.351562 32-32 32s-32-14.351562-32-32zm8 70.863281v41.136719h-13.664062c2.480468-14.359375 7.054687-28.128906 13.664062-41.136719zm-72 73.136719c-4.414062 0-8-3.585938-8-8s3.585938-8 8-8h88v-72c0-1.886719.753906-3.550781 1.847656-4.921875 2.671875-1.238281 5.511719-2.132813 8.457032-2.613281 3.269531 1.007812 5.695312 3.941406 5.695312 7.535156v80c0 4.414062-3.585938 8-8 8zm88 264h-16v-200h16zm48 0h-32v-200h32zm0-216h-80v-32h40c13.230469 0 24-10.769531 24-24v-80c0-1.207031-.183594-2.375-.359375-3.535156 9.726563 5.613281 16.359375 16.015625 16.359375 28.03125zm-152-232h16v16h-16zm-32 0h16v16h-16zm-32 0h16v16h-16zm64 48h48v-80h-144v80h45.785156l50.214844 30.136719zm-16 1.863281-29.785156-17.863281h-34.214844v-48h112v48h-48zm-88 78.136719h16v16h-16zm48 16h-16v-16h16zm-80 32h48v22.945312l34.425781-22.945312h29.574219v-80h-112zm16-64h80v48h-18.425781l-13.574219 9.054688v-9.054688h-48zm0 0" fill="url(#a)"/></svg>